<svg width="12" height="12" viewBox="0 0 12 12" fill="none" xmlns="http://www.w3.org/2000/svg">
<path fill-rule="evenodd" clip-rule="evenodd" d="M6 0C2.68629 0 0 2.68629 0 6C0 9.31371 2.68629 12 6 12C9.31371 12 12 9.31371 12 6C12 2.68629 9.31371 0 6 0ZM8.56231 4.47239C8.73116 4.25388 8.6909 3.93987 8.47239 3.77102C8.25388 3.60218 7.93987 3.64244 7.77103 3.86094L5.3041 7.05343L4.20498 5.83218C4.02025 5.62693 3.70411 5.61029 3.49885 5.79502C3.2936 5.97975 3.27696 6.29589 3.46169 6.50115L4.96169 8.16781C5.06088 8.27803 5.20388 8.33854 5.35206 8.33298C5.50024 8.32743 5.63831 8.25639 5.72898 8.13906L8.56231 4.47239Z" fill="#6A9BE3"/>
</svg>
