<svg width="34" height="34" viewBox="0 0 34 34" fill="none" xmlns="http://www.w3.org/2000/svg">
<rect x="1" y="1" width="32" height="32" rx="16" fill="#858899"/>
<rect x="1" y="1" width="32" height="32" rx="16" stroke="#F0F0F5" stroke-width="2"/>
<path d="M8 14.7379C8 13.502 8 12.884 8.2378 12.4119C8.44698 11.9966 8.78076 11.659 9.19129 11.4474C9.65801 11.2069 10.269 11.2069 11.4909 11.2069H13.4545L14.063 9.97595C14.2381 9.62168 14.3257 9.44454 14.4563 9.31512C14.5719 9.20068 14.7111 9.11364 14.864 9.06031C15.0368 9 15.2326 9 15.6242 9H18.3758C18.7674 9 18.9632 9 19.136 9.06031C19.2889 9.11364 19.4281 9.20068 19.5437 9.31512C19.6743 9.44454 19.7619 9.62168 19.937 9.97595L20.5455 11.2069H22.5091C23.731 11.2069 24.342 11.2069 24.8087 11.4474C25.2192 11.659 25.553 11.9966 25.7622 12.4119C26 12.884 26 13.502 26 14.7379V21.469C26 22.7049 26 23.3229 25.7622 23.795C25.553 24.2103 25.2192 24.5479 24.8087 24.7595C24.342 25 23.731 25 22.5091 25H11.4909C10.269 25 9.65801 25 9.19129 24.7595C8.78076 24.5479 8.44698 24.2103 8.2378 23.795C8 23.3229 8 22.7049 8 21.469V14.7379Z" stroke="#E8E8EE" stroke-width="1.5" stroke-linejoin="round"/>
<path d="M20.5455 18.1034C20.5455 20.0841 18.9581 21.6897 17 21.6897C15.0419 21.6897 13.4545 20.0841 13.4545 18.1034C13.4545 16.1228 15.0419 14.5172 17 14.5172C18.9581 14.5172 20.5455 16.1228 20.5455 18.1034Z" stroke="#E8E8EE" stroke-width="1.5" stroke-linejoin="round"/>
</svg>
