<svg width="20" height="15" viewBox="0 0 20 15" fill="none" xmlns="http://www.w3.org/2000/svg">
<path d="M1 1L4.44822 3.39459M4.44822 3.39459C3.15582 4.48009 2.1479 5.69015 1.56396 6.46007C1.37667 6.70701 1.28302 6.83049 1.23464 7.00938C1.19713 7.14806 1.19713 7.35194 1.23464 7.49062C1.28302 7.66951 1.37667 7.79299 1.56396 8.03994C2.83889 9.72091 6.13492 13.5 10 13.5C12.0948 13.5 14.0225 12.3899 15.5518 11.1054M4.44822 3.39459L8.0434 5.89125M15.5518 11.1054L19 13.5M15.5518 11.1054L11.9566 8.60876M8.0434 5.89125C7.7309 6.26878 7.54546 6.73954 7.54546 7.25C7.54546 8.49264 8.6444 9.5 10 9.5C10.7987 9.5 11.5084 9.15027 11.9566 8.60876M8.0434 5.89125L11.9566 8.60876M7.7458 1.41186C8.46621 1.15329 9.22156 1 10 1C13.8651 1 17.1611 4.77909 18.436 6.46006C18.6233 6.70701 18.717 6.83049 18.7654 7.00937C18.8029 7.14806 18.8029 7.35194 18.7654 7.49063C18.717 7.66951 18.6233 7.79299 18.436 8.03993C18.3182 8.19527 18.1832 8.36851 18.032 8.55504" stroke="#CDCED6" stroke-width="1.5" stroke-linecap="round" stroke-linejoin="round"/>
</svg>
