<svg width="12" height="12" viewBox="0 0 12 12" fill="none" xmlns="http://www.w3.org/2000/svg">
<path fill-rule="evenodd" clip-rule="evenodd" d="M6 0C4.223 0 2.62643 0.772501 1.52779 2C0.577707 3.06151 0 4.46329 0 6C0 7.53671 0.577707 8.93849 1.52779 10C2.62643 11.2275 4.223 12 6 12C7.61022 12 9.07229 11.3657 10.15 10.3333C11.2901 9.24117 12 7.70349 12 6C12 4.38978 11.3657 2.92771 10.3333 1.85002C9.24117 0.70991 7.70349 0 6 0ZM6 2.66667C6.27614 2.66667 6.5 2.89052 6.5 3.16667V4.16667C6.5 4.44281 6.27614 4.66667 6 4.66667C5.72386 4.66667 5.5 4.44281 5.5 4.16667V3.16667C5.5 2.89052 5.72386 2.66667 6 2.66667ZM6 6C6.27614 6 6.5 6.22386 6.5 6.5L6.5 8.83333C6.5 9.10948 6.27614 9.33333 6 9.33333C5.72386 9.33333 5.5 9.10948 5.5 8.83333L5.5 6.5C5.5 6.22386 5.72386 6 6 6Z" fill="#858899"/>
</svg>
