<svg width="20" height="15" viewBox="0 0 20 15" fill="none" xmlns="http://www.w3.org/2000/svg">
<path d="M18.6342 6.46006C18.8258 6.70701 18.9217 6.83049 18.9712 7.00938C19.0096 7.14806 19.0096 7.35194 18.9712 7.49062C18.9217 7.66951 18.8258 7.79299 18.6342 8.03993C17.3293 9.72091 13.9559 13.5 10 13.5C6.04415 13.5 2.67071 9.72091 1.36585 8.03994C1.17415 7.79299 1.07831 7.66951 1.02879 7.49062C0.990403 7.35194 0.990403 7.14806 1.02879 7.00938C1.07831 6.83049 1.17415 6.70701 1.36585 6.46007C2.67071 4.77909 6.04415 1 10 1C13.9559 1 17.3293 4.77909 18.6342 6.46006Z" stroke="#CDCED6" stroke-width="1.5" stroke-linejoin="round"/>
<path d="M12.4545 7.25C12.4545 8.49264 11.3556 9.5 10 9.5C8.64439 9.5 7.54545 8.49264 7.54545 7.25C7.54545 6.00736 8.64439 5 10 5C11.3556 5 12.4545 6.00736 12.4545 7.25Z" stroke="#CDCED6" stroke-width="1.5" stroke-linejoin="round"/>
</svg>
