<svg width="12" height="12" viewBox="0 0 12 12" fill="none" xmlns="http://www.w3.org/2000/svg">
<path fill-rule="evenodd" clip-rule="evenodd" d="M6 12C7.777 12 9.37357 11.2275 10.4722 10C11.4223 8.93849 12 7.53671 12 6C12 4.46329 11.4223 3.06151 10.4722 2C9.37357 0.772501 7.777 -3.69186e-07 6 -5.24537e-07C4.38978 -6.65307e-07 2.92771 0.634299 1.85002 1.66667C0.70991 2.75883 6.7346e-07 4.29651 5.24537e-07 6C3.83767e-07 7.61022 0.6343 9.07229 1.66667 10.15C2.75883 11.2901 4.29651 12 6 12ZM6 9.33333C5.72386 9.33333 5.5 9.10947 5.5 8.83333L5.5 7.83333C5.5 7.55719 5.72386 7.33333 6 7.33333C6.27614 7.33333 6.5 7.55719 6.5 7.83333L6.5 8.83333C6.5 9.10947 6.27614 9.33333 6 9.33333ZM6 6C5.72386 6 5.5 5.77614 5.5 5.5L5.5 3.16667C5.5 2.89052 5.72386 2.66667 6 2.66667C6.27614 2.66667 6.5 2.89052 6.5 3.16667L6.5 5.5C6.5 5.77614 6.27614 6 6 6Z" fill="#E13348"/>
</svg>
