<svg width="247" height="71" viewBox="0 0 247 71" fill="none" xmlns="http://www.w3.org/2000/svg">
<g filter="url(#filter0_d_1082_2211)">
<path fill-rule="evenodd" clip-rule="evenodd" d="M96.5593 58.5417C96.5498 58.2783 96.6095 57.9095 96.682 57.4615C96.9101 56.0522 97.2651 53.8589 95.9907 51.695C95.3163 50.5518 94.417 49.4342 93.2797 48.368C92.1425 47.3019 90.8465 46.2999 89.3654 45.3622C87.8842 44.4245 86.2709 43.5638 84.5121 42.8059C82.7533 42.0352 80.9283 41.3801 79.0372 40.8277C76.3802 40.0534 74.2581 39.7203 73.473 39.597C73.3594 39.5792 73.2738 39.5658 73.2186 39.556C72.769 39.4789 72.24 39.3248 71.6581 39.0807C72.9144 38.811 74.1707 38.477 75.427 38.0402C77.3842 37.3594 79.315 36.5116 81.1531 35.5097C83.0045 34.5077 84.803 33.3388 86.4957 32.0542C88.2016 30.7568 89.7885 29.3566 91.2168 27.8794C92.645 26.4022 93.9277 24.8093 95.0386 23.1779C96.1494 21.5209 97.0487 19.8253 97.7231 18.104C98.3975 16.357 98.7942 14.6742 98.9133 13.0942C99.0323 11.4757 98.8736 9.98558 98.4636 8.6368C98.0405 7.26232 97.3528 6.02915 96.4139 4.96297C95.475 3.90964 94.3112 3.04899 92.9624 2.40671C91.6399 1.77728 90.1059 1.35338 88.4 1.135C87.5404 1.03224 86.6412 0.980856 85.7023 1.00655C84.8162 1.00655 83.8773 1.08362 82.9119 1.21208C82.8128 1.22492 82.7136 1.24098 82.6144 1.25703C82.5152 1.27309 82.416 1.28915 82.3168 1.30199C80.558 1.54606 78.7992 2.02134 77.0404 2.62508C75.0964 3.3059 73.1657 4.1537 71.3143 5.14281C69.4629 6.14476 67.6512 7.30086 65.9585 8.58541C64.2526 9.86997 62.6656 11.2701 61.2374 12.7474C59.796 14.2246 58.5132 15.8046 57.4024 17.4488C56.2783 19.1059 55.3791 20.8144 54.7179 22.5357C49.5604 32.6066 51.1473 44.7071 58.7645 53.1851L73.3508 69.4347H86.0858L83.7186 67.6749C82.5946 66.7757 82.1053 66.082 82.2772 65.6196C82.5417 64.8746 84.4724 64.7076 88.0694 65.1058L114.69 69.2035C116.33 69.4604 117.983 69.576 119.636 69.5889H141.059C105.988 65.5682 96.6784 61.6889 96.5726 58.5289L96.5593 58.5417ZM71.83 29.9347C71.4069 29.9861 70.9837 30.0246 70.587 30.0503H70.0844H69.6745C69.0133 30.0246 68.405 29.9219 67.8628 29.7677C66.8181 29.4594 66.0246 28.997 65.4427 28.3419C64.8741 27.6996 64.5435 26.916 64.4245 25.9397C64.3054 24.9249 64.4906 23.756 64.9931 22.4586C65.5221 21.097 66.3288 19.7353 67.4131 18.4251C68.5108 17.0892 69.7935 15.8688 71.2085 14.8027C72.6367 13.7365 74.1839 12.8244 75.8238 12.0794C77.4107 11.3601 79.024 10.8976 80.5977 10.6792H80.6506C82.1714 10.4737 83.507 10.5379 84.6179 10.8591C85.6758 11.1674 86.4693 11.6298 87.0379 12.2721C87.5933 12.9015 87.9239 13.6979 88.0297 14.6742C88.1487 15.7147 87.9504 16.8965 87.4479 18.1939C86.9189 19.5555 86.1122 20.9043 85.041 22.2017C83.9434 23.5248 82.6739 24.7451 81.2589 25.8113C79.8439 26.8903 78.2967 27.8023 76.6569 28.5345C75.8502 28.8942 75.0435 29.1897 74.2368 29.4209C73.4302 29.6521 72.6367 29.8191 71.83 29.9219V29.9347ZM87.4214 54.1228C87.1702 56.0625 84.9749 57.2058 82.9781 57.5783C79.2753 58.272 75.3477 57.2957 72.2664 55.2019C69.7538 53.4934 65.2708 49.036 69.0397 46.3128C70.1373 45.5292 71.5391 45.2851 72.9012 45.2337C77.7148 45.041 82.5813 47.0321 85.8081 50.5132C86.7205 51.5024 87.5404 52.7227 87.4214 54.0458V54.1228ZM127.241 34.742C124.848 36.0522 122.295 37.0927 119.651 37.8506L119.677 37.8377L115.948 38.8911L152.962 69.5919H141.127C136.207 68.2303 105.752 59.3155 99.9862 36.6945C99.3911 34.3951 99.034 31.8003 99.0472 28.9101C99.1133 26.9833 99.7613 24.928 100.978 22.7956L107.55 11.286C111.174 4.94033 118.077 1.00959 125.549 1.03528L112.311 24.2086C111.888 24.9665 111.65 25.6602 111.637 26.2768C111.623 26.8291 111.742 27.2916 112.007 27.6898C112.285 28.1008 112.708 28.422 113.303 28.6789C113.977 28.9615 114.811 29.1156 115.802 29.1156C116.86 29.1156 117.958 28.9486 119.095 28.6275C120.259 28.3064 121.383 27.8439 122.441 27.2659C123.486 26.6878 124.451 26.007 125.311 25.2363C126.13 24.5041 126.778 23.7077 127.255 22.8855L133.787 11.4659C137.437 5.08163 144.353 1.1252 151.865 1.1252L138.614 24.2857C137.437 26.3538 135.824 28.3064 133.827 30.1047C131.857 31.8774 129.648 33.4317 127.241 34.742ZM37.9875 44.0121C37.9875 44.0121 41.3067 45.3738 44.4409 47.1336C49.0958 49.7541 57.8238 57.6926 66.4328 69.9087C53.4863 70.1143 20.2009 69.9087 20.2009 69.9087C18.3255 66.9723 16.4423 64.041 14.5594 61.1103C12.2332 57.4897 9.90763 53.8699 7.59818 50.2422C5.9187 47.596 4.23922 44.9499 2.55974 42.2908C1.1712 40.0814 0.0471399 37.7307 2.21591 35.5341C3.76315 33.9669 5.73356 32.798 7.79654 31.9759C12.1721 30.2357 16.7995 30.1109 21.4367 29.9859H21.4367C24.5357 29.9023 27.639 29.8186 30.6745 29.2526C31.5737 29.0856 32.5126 28.8544 33.1209 28.1864C33.7293 27.5185 33.7293 26.2981 32.9226 25.8871C32.6449 25.7458 32.3275 25.7201 32.0233 25.7072C30.7191 25.6473 29.4089 25.6673 28.0968 25.6872H28.0968H28.0967H28.0967H28.0966C27.4399 25.6972 26.7826 25.7072 26.1253 25.7072L25.9424 25.7073C22.0742 25.7078 17.3463 25.7086 14.1177 23.3565C9.44957 19.9524 12.0151 13.8123 15.374 10.4853C22.5416 3.39454 32.5655 1.89161 42.3382 1.9173C44.0157 1.92052 45.6939 1.92292 47.3726 1.92534C52.4035 1.93256 57.4382 1.93979 62.4655 1.96868C59.8471 5.9508 55.8666 8.9695 51.2778 10.5495C46.9923 12.0287 42.3936 11.8741 37.8865 11.7226L37.8864 11.7226C36.9139 11.6899 35.9455 11.6573 34.9856 11.6414C31.8382 11.5771 28.3999 11.8084 26.284 14.3903C25.0806 15.8547 27.8841 15.9832 28.7834 16.0089C30.1338 16.0523 31.6119 15.9815 33.1401 15.9083C38.3912 15.6568 44.2341 15.3769 47.5221 19.6056C47.866 20.0424 48.1437 20.5176 48.3553 21.0186C48.5404 21.4682 48.8181 22.316 48.8181 23.7676C48.7652 29.7921 43.8855 34.0954 38.6222 36.4461C36.0964 37.5765 33.3854 38.283 30.6612 38.784C29.6826 38.9638 28.0693 39.1951 26.4295 39.4006C24.8293 39.5933 23.4805 39.7217 22.4887 39.7988C26.1253 40.4154 28.9024 41.0962 30.7141 41.5843C32.5021 42.0754 33.8071 42.4995 34.3291 42.6691L34.4301 42.7019C35.6468 43.1001 36.8237 43.5368 37.9875 44.0121ZM42.3515 63.7814C43.1185 63.4731 43.8722 63.0749 44.4409 62.5097C44.6657 62.2913 44.8508 62.0473 44.9963 61.7647C45.4724 60.8655 45.4195 59.7864 45.0757 58.8359C44.7318 57.8853 44.0971 57.076 43.4094 56.3182C40.8307 53.4664 37.4585 51.3469 33.8218 49.9339C30.1852 48.5209 26.3105 47.7759 22.4225 47.429C20.8224 47.2877 19.1429 47.2235 17.7147 47.93C12.9672 50.2808 18.0718 56.0099 20.3463 58.1679C23.454 61.1224 27.4213 63.2162 31.6398 64.2053C35.1707 65.0274 38.9925 65.1173 42.3515 63.7814ZM224.7 45.1815L218.181 45.2586C211.053 45.3485 204.137 47.635 198.424 51.7713L227.768 51.6942C222.611 55.6506 216.224 57.8087 209.638 57.8344H201.624C194.615 57.8472 186.694 60.609 180.888 64.4241H211.886C207.363 67.6869 201.889 69.4467 196.255 69.4467H161.634H161.621L191.759 48.8939C201.809 42.0472 213.804 38.3734 226.089 38.3991L245.396 38.4376C239.392 42.728 232.159 45.0916 224.7 45.1815ZM200.434 37.4742C196.546 38.2963 186.112 45.9394 161.621 69.4467L153.078 69.5752C148.846 62.8184 146.043 57.2949 144.271 53.4669C143.16 51.0648 142.128 48.6627 141.546 45.3999C141.374 44.3851 140.832 41.1095 141.308 36.7677C142.181 28.7392 145.91 22.5348 152.337 11.8473C152.903 10.8933 153.124 10.5588 153.244 10.3774C153.273 10.3341 153.296 10.2995 153.316 10.2673C156.767 4.73092 162.93 1.314 169.595 1.24977V21.4301L176.948 10.4986C180.888 4.641 187.58 1.08278 194.787 1.00571C194.463 1.00571 193.43 2.74324 192.836 3.74454C192.655 4.04892 192.514 4.28526 192.446 4.38409C192.042 4.96957 191.635 5.55828 191.228 6.14698C190.822 6.73365 190.416 7.32031 190.013 7.90376C189.198 9.08119 188.387 10.2554 187.576 11.4296C186.767 12.5997 185.959 13.7698 185.147 14.9431C184.457 15.9395 183.767 16.9367 183.077 17.9344C180.972 20.9757 178.864 24.0225 176.762 27.0693C176.313 27.7201 175.873 28.3984 175.428 29.0836C173.126 32.6318 170.705 36.3635 166.249 37.3971C164.451 37.821 162.454 37.6155 160.893 36.6264C160.735 36.5237 160.576 36.4081 160.417 36.2925L160.417 36.2924C158.46 34.7509 157.984 31.9249 157.786 29.6127C157.64 27.8529 157.706 26.093 157.812 24.3332C157.852 23.5111 157.918 22.7018 158.024 21.8797C158.09 21.3659 158.156 20.9548 158.222 20.6208C158.42 19.5161 158.394 19.4647 158.394 19.4647C158.209 19.4005 151.795 29.1503 151.491 40.9168C151.24 50.962 155.538 58.7978 158.328 62.9341L178.283 37.8853L202.589 3.22799C203.502 1.91774 205.009 1.13416 206.636 1.12132L218.326 1.00571C218.503 0.997121 218.674 1.00002 218.843 1.00288C218.927 1.0043 219.01 1.00571 219.093 1.00571C220.945 1.04425 222.651 1.23693 224.145 1.5966C225.877 2.02051 227.385 2.64994 228.628 3.45921C229.897 4.29417 230.889 5.32181 231.577 6.5036C232.278 7.69823 232.661 9.03417 232.754 10.4729C232.833 11.8987 232.595 13.4402 232.04 15.0587C231.498 16.6259 230.612 18.2958 229.421 19.9914C228.258 21.6613 226.843 23.2799 225.216 24.8213C223.616 26.3371 221.831 27.7758 219.9 29.1117C217.982 30.4348 215.933 31.6552 213.804 32.747C210.722 34.327 208.21 35.2391 207.205 35.5987C203.742 36.815 201.008 37.3598 200.481 37.4648L200.434 37.4742ZM215.602 9.26539C212.084 8.9571 209.307 10.0875 206.94 11.9244V11.9116C204.381 13.8964 202.308 16.7123 200.321 19.4118C199.813 20.1018 199.311 20.7841 198.807 21.443C196.092 24.9941 193.276 28.4818 190.46 31.9687C189.476 33.1865 188.493 34.4042 187.514 35.6244C189.881 34.9308 193.227 33.8774 197.141 32.336C206.266 28.7649 215.8 24.0891 221.381 15.8808C222.016 14.956 222.611 13.9283 222.611 12.8108C222.623 9.87863 218.318 9.50281 215.951 9.29624C215.829 9.28562 215.713 9.27544 215.602 9.26539Z" fill="url(#paint0_linear_1082_2211)"/>
</g>
<defs>
<filter id="filter0_d_1082_2211" x="0" y="0" width="246.398" height="71" filterUnits="userSpaceOnUse" color-interpolation-filters="sRGB">
<feFlood flood-opacity="0" result="BackgroundImageFix"/>
<feColorMatrix in="SourceAlpha" type="matrix" values="0 0 0 0 0 0 0 0 0 0 0 0 0 0 0 0 0 0 127 0" result="hardAlpha"/>
<feOffset/>
<feGaussianBlur stdDeviation="0.5"/>
<feComposite in2="hardAlpha" operator="out"/>
<feColorMatrix type="matrix" values="0 0 0 0 0 0 0 0 0 0 0 0 0 0 0 0 0 0 0.35 0"/>
<feBlend mode="normal" in2="BackgroundImageFix" result="effect1_dropShadow_1082_2211"/>
<feBlend mode="normal" in="SourceGraphic" in2="effect1_dropShadow_1082_2211" result="shape"/>
</filter>
<linearGradient id="paint0_linear_1082_2211" x1="193.249" y1="69.5715" x2="193.249" y2="0.992863" gradientUnits="userSpaceOnUse">
<stop offset="0.215" stop-color="#A40BCB"/>
<stop offset="0.615" stop-color="#F0F0F5"/>
</linearGradient>
</defs>
</svg>
